# Blender v2.72 (sub 0) OBJ File: ''
# www.blender.org
mtllib grass.mtl
o Plane001
v -24.179350 -0.000012 23.548059
v -12.089649 -0.000012 23.548059
v -12.089649 -0.000006 11.774060
v 0.000000 -0.000012 23.548059
v 0.000000 -0.000006 11.774060
v 12.089650 -0.000012 23.548059
v 12.089650 -0.000006 11.774060
v 24.179350 -0.000012 23.548059
v 24.179350 -0.000006 11.774060
v -24.179350 -0.000006 11.774060
v -12.089649 0.000000 0.000010
v 0.000000 0.000000 0.000010
v 12.089650 0.000000 0.000010
v 24.179350 0.000000 0.000010
v -24.179350 0.000000 0.000010
v -12.089649 0.000006 -11.774040
v 0.000000 0.000006 -11.774040
v 12.089650 0.000006 -11.774040
v 24.179350 0.000006 -11.774040
v -24.179350 0.000006 -11.774040
v -12.089649 0.000012 -23.548090
v 0.000000 0.000012 -23.548090
v 12.089650 0.000012 -23.548090
v 24.179350 0.000012 -23.548090
v -24.179350 0.000012 -23.548090
vt 0.000000 0.000000
vt 0.250000 0.000000
vt 0.250000 0.250000
vt 0.500000 0.000000
vt 0.500000 0.250000
vt 0.750000 0.000000
vt 0.750000 0.250000
vt 1.000000 0.000000
vt 1.000000 0.250000
vt 0.000000 0.250000
vt 0.250000 0.500000
vt 0.500000 0.500000
vt 0.750000 0.500000
vt 1.000000 0.500000
vt 0.000000 0.500000
vt 0.250000 0.750000
vt 0.500000 0.750000
vt 0.750000 0.750000
vt 1.000000 0.750000
vt 0.000000 0.750000
vt 0.250000 1.000000
vt 0.500000 1.000000
vt 0.750000 1.000000
vt 1.000000 1.000000
vt 0.000000 1.000000
vn 0.000000 1.000000 0.000000
usemtl 20___Default
s 1
f 1/1/1 2/2/1 3/3/1
f 2/2/1 4/4/1 5/5/1
f 4/4/1 6/6/1 7/7/1
f 6/6/1 8/8/1 9/9/1
f 10/10/1 3/3/1 11/11/1
f 3/3/1 5/5/1 12/12/1
f 5/5/1 7/7/1 13/13/1
f 7/7/1 9/9/1 14/14/1
f 15/15/1 11/11/1 16/16/1
f 11/11/1 12/12/1 17/17/1
f 12/12/1 13/13/1 18/18/1
f 13/13/1 14/14/1 19/19/1
f 20/20/1 16/16/1 21/21/1
f 16/16/1 17/17/1 22/22/1
f 17/17/1 18/18/1 23/23/1
f 18/18/1 19/19/1 24/24/1
f 10/10/1 1/1/1 3/3/1
f 3/3/1 2/2/1 5/5/1
f 5/5/1 4/4/1 7/7/1
f 7/7/1 6/6/1 9/9/1
f 15/15/1 10/10/1 11/11/1
f 11/11/1 3/3/1 12/12/1
f 12/12/1 5/5/1 13/13/1
f 13/13/1 7/7/1 14/14/1
f 20/20/1 15/15/1 16/16/1
f 16/16/1 11/11/1 17/17/1
f 17/17/1 12/12/1 18/18/1
f 18/18/1 13/13/1 19/19/1
f 25/25/1 20/20/1 21/21/1
f 21/21/1 16/16/1 22/22/1
f 22/22/1 17/17/1 23/23/1
f 23/23/1 18/18/1 24/24/1
